<svg xmlns="http://www.w3.org/2000/svg" xmlns:xlink="http://www.w3.org/1999/xlink" width="300" zoomAndPan="magnify" viewBox="0 0 224.87999 225" height="300" preserveAspectRatio="xMidYMid meet" version="1.0"><defs><clipPath id="d73766d0f3"><path d="M 19.421875 0.0585938 L 205.320312 0.0585938 L 205.320312 224.9375 L 19.421875 224.9375 Z M 19.421875 0.0585938 " clip-rule="nonzero"/></clipPath></defs><g clip-path="url(#d73766d0f3)"><path fill="#ed451d" d="M 201.574219 38.667969 L 151.191406 38.667969 L 151.191406 23.941406 C 151.191406 10.765625 140.726562 0.300781 127.550781 0.300781 L 97.320312 0.300781 C 84.144531 0.300781 73.679688 10.765625 73.679688 23.941406 L 73.679688 38.667969 L 23.296875 38.667969 C 20.972656 38.667969 19.421875 40.21875 19.421875 42.546875 C 19.421875 44.871094 20.972656 46.421875 23.296875 46.421875 L 34.925781 46.421875 L 48.488281 202.996094 C 48.488281 203.382812 48.488281 203.382812 48.488281 203.769531 C 51.589844 216.171875 63.214844 224.699219 76.394531 224.699219 L 148.867188 224.699219 C 162.042969 224.699219 173.285156 216.171875 176.773438 203.769531 C 176.773438 203.382812 176.773438 203.382812 176.773438 202.996094 L 188.785156 46.421875 L 201.574219 46.421875 C 203.902344 46.421875 205.449219 44.871094 205.449219 42.546875 C 205.449219 40.21875 203.902344 38.667969 201.574219 38.667969 Z M 81.429688 23.941406 C 81.429688 15.027344 88.40625 8.050781 97.320312 8.050781 L 127.550781 8.050781 C 136.464844 8.050781 143.441406 15.027344 143.441406 23.941406 L 143.441406 38.667969 L 81.429688 38.667969 Z M 89.183594 179.355469 C 86.855469 179.355469 85.308594 177.804688 84.917969 175.867188 L 78.332031 86.726562 C 78.332031 84.402344 79.882812 82.851562 81.820312 82.464844 C 83.757812 82.464844 85.695312 84.015625 86.082031 85.953125 L 92.671875 175.089844 C 93.058594 177.417969 91.507812 179.355469 89.183594 179.355469 Z M 139.179688 175.867188 C 139.179688 177.804688 137.238281 179.355469 135.300781 179.355469 C 135.300781 179.355469 134.914062 179.355469 134.914062 179.355469 C 132.589844 179.355469 131.039062 177.417969 131.425781 175.089844 L 139.179688 86.339844 C 139.179688 84.015625 141.117188 82.464844 143.441406 82.851562 C 145.765625 82.851562 147.316406 84.789062 146.929688 87.113281 Z M 139.179688 175.867188 " fill-opacity="1" fill-rule="nonzero"/></g></svg>