<svg xmlns="http://www.w3.org/2000/svg" xmlns:xlink="http://www.w3.org/1999/xlink" width="300" zoomAndPan="magnify" viewBox="0 0 224.87999 225" height="300" preserveAspectRatio="xMidYMid meet" version="1.0"><defs><filter x="0%" y="0%" width="100%" height="100%" id="ff6afe632f"><feColorMatrix values="0 0 0 0 1 0 0 0 0 1 0 0 0 0 1 0 0 0 1 0" color-interpolation-filters="sRGB"/></filter><clipPath id="6961755c6a"><path d="M 30.78125 0.0585938 L 194 0.0585938 L 194 224.9375 L 30.78125 224.9375 Z M 30.78125 0.0585938 " clip-rule="nonzero"/></clipPath><clipPath id="1ab421ab45"><path d="M 136 0.0585938 L 194.191406 0.0585938 L 194.191406 60 L 136 60 Z M 136 0.0585938 " clip-rule="nonzero"/></clipPath><mask id="c66132c3f9"><g filter="url(#ff6afe632f)"><rect x="-22.487999" width="269.855988" fill="#000000" y="-22.5" height="270" fill-opacity="0.35"/></g></mask><clipPath id="c52e1cd86a"><path d="M 1 0.0585938 L 58.191406 0.0585938 L 58.191406 57 L 1 57 Z M 1 0.0585938 " clip-rule="nonzero"/></clipPath><clipPath id="996a1e45d4"><rect x="0" width="59" y="0" height="60"/></clipPath></defs><g clip-path="url(#6961755c6a)"><path fill="#f6bb41" d="M 137.578125 0.0820312 L 45.769531 0.0820312 C 37.652344 0.0820312 30.78125 6.953125 30.78125 15.070312 L 30.78125 209.617188 C 30.78125 218.046875 37.652344 224.917969 45.769531 224.917969 L 178.796875 224.917969 C 187.230469 224.917969 193.789062 218.046875 193.789062 209.929688 L 193.789062 56.914062 Z M 137.578125 0.0820312 " fill-opacity="1" fill-rule="nonzero"/></g><g clip-path="url(#1ab421ab45)"><g mask="url(#c66132c3f9)"><g transform="matrix(1, 0, 0, 1, 136, -0.000000000000003234)"><g clip-path="url(#996a1e45d4)"><g clip-path="url(#c52e1cd86a)"><path fill="#221f1f" d="M 1.578125 0.0820312 L 1.578125 56.601562 L 58.097656 56.601562 " fill-opacity="1" fill-rule="nonzero"/></g></g></g></g></g><path fill="#ffffff" d="M 80.433594 104.382812 C 80.433594 104.953125 80.375 105.523438 80.265625 106.085938 C 80.152344 106.648438 79.984375 107.195312 79.765625 107.726562 C 79.546875 108.257812 79.277344 108.761719 78.957031 109.238281 C 78.640625 109.714844 78.277344 110.15625 77.871094 110.5625 C 77.464844 110.96875 77.023438 111.332031 76.546875 111.652344 C 76.070312 111.96875 75.566406 112.238281 75.035156 112.457031 C 74.503906 112.679688 73.957031 112.84375 73.394531 112.957031 C 72.832031 113.070312 72.261719 113.125 71.6875 113.125 C 71.113281 113.125 70.546875 113.070312 69.984375 112.957031 C 69.417969 112.84375 68.871094 112.679688 68.34375 112.457031 C 67.8125 112.238281 67.308594 111.96875 66.832031 111.652344 C 66.351562 111.332031 65.910156 110.96875 65.503906 110.5625 C 65.101562 110.15625 64.738281 109.714844 64.417969 109.238281 C 64.097656 108.761719 63.828125 108.257812 63.609375 107.726562 C 63.390625 107.195312 63.226562 106.648438 63.113281 106.085938 C 63 105.523438 62.945312 104.953125 62.945312 104.382812 C 62.945312 103.808594 63 103.238281 63.113281 102.675781 C 63.226562 102.113281 63.390625 101.566406 63.609375 101.035156 C 63.828125 100.503906 64.097656 100 64.417969 99.523438 C 64.738281 99.046875 65.101562 98.605469 65.503906 98.199219 C 65.910156 97.792969 66.351562 97.429688 66.832031 97.109375 C 67.308594 96.792969 67.8125 96.523438 68.34375 96.304688 C 68.871094 96.082031 69.417969 95.917969 69.984375 95.804688 C 70.546875 95.691406 71.113281 95.636719 71.6875 95.636719 C 72.261719 95.636719 72.832031 95.691406 73.394531 95.804688 C 73.957031 95.917969 74.503906 96.082031 75.035156 96.304688 C 75.566406 96.523438 76.070312 96.792969 76.546875 97.109375 C 77.023438 97.429688 77.464844 97.792969 77.871094 98.199219 C 78.277344 98.605469 78.640625 99.046875 78.957031 99.523438 C 79.277344 100 79.546875 100.503906 79.765625 101.035156 C 79.984375 101.566406 80.152344 102.113281 80.265625 102.675781 C 80.375 103.238281 80.433594 103.808594 80.433594 104.382812 Z M 80.433594 104.382812 " fill-opacity="1" fill-rule="nonzero"/><path fill="#ffffff" d="M 80.433594 132.171875 C 80.433594 132.746094 80.375 133.316406 80.265625 133.878906 C 80.152344 134.441406 79.984375 134.988281 79.765625 135.519531 C 79.546875 136.050781 79.277344 136.554688 78.957031 137.03125 C 78.640625 137.507812 78.277344 137.949219 77.871094 138.355469 C 77.464844 138.761719 77.023438 139.125 76.546875 139.441406 C 76.070312 139.761719 75.566406 140.03125 75.035156 140.25 C 74.503906 140.472656 73.957031 140.636719 73.394531 140.75 C 72.832031 140.859375 72.261719 140.917969 71.6875 140.917969 C 71.113281 140.917969 70.546875 140.859375 69.984375 140.75 C 69.417969 140.636719 68.871094 140.472656 68.34375 140.25 C 67.8125 140.03125 67.308594 139.761719 66.832031 139.441406 C 66.351562 139.125 65.910156 138.761719 65.503906 138.355469 C 65.101562 137.949219 64.738281 137.507812 64.417969 137.03125 C 64.097656 136.554688 63.828125 136.050781 63.609375 135.519531 C 63.390625 134.988281 63.226562 134.441406 63.113281 133.878906 C 63 133.316406 62.945312 132.746094 62.945312 132.171875 C 62.945312 131.597656 63 131.03125 63.113281 130.46875 C 63.226562 129.90625 63.390625 129.359375 63.609375 128.828125 C 63.828125 128.296875 64.097656 127.792969 64.417969 127.316406 C 64.738281 126.839844 65.101562 126.398438 65.503906 125.992188 C 65.910156 125.585938 66.351562 125.222656 66.832031 124.902344 C 67.308594 124.585938 67.8125 124.316406 68.34375 124.09375 C 68.871094 123.875 69.417969 123.710938 69.984375 123.597656 C 70.546875 123.484375 71.113281 123.429688 71.6875 123.429688 C 72.261719 123.429688 72.832031 123.484375 73.394531 123.597656 C 73.957031 123.710938 74.503906 123.875 75.035156 124.09375 C 75.566406 124.316406 76.070312 124.585938 76.546875 124.902344 C 77.023438 125.222656 77.464844 125.585938 77.871094 125.992188 C 78.277344 126.398438 78.640625 126.839844 78.957031 127.316406 C 79.277344 127.792969 79.546875 128.296875 79.765625 128.828125 C 79.984375 129.359375 80.152344 129.90625 80.265625 130.46875 C 80.375 131.03125 80.433594 131.597656 80.433594 132.171875 Z M 80.433594 132.171875 " fill-opacity="1" fill-rule="nonzero"/><path fill="#ffffff" d="M 80.433594 159.964844 C 80.433594 160.539062 80.375 161.109375 80.265625 161.671875 C 80.152344 162.234375 79.984375 162.78125 79.765625 163.3125 C 79.546875 163.84375 79.277344 164.347656 78.957031 164.824219 C 78.640625 165.300781 78.277344 165.742188 77.871094 166.148438 C 77.464844 166.554688 77.023438 166.917969 76.546875 167.234375 C 76.070312 167.554688 75.566406 167.824219 75.035156 168.042969 C 74.503906 168.261719 73.957031 168.429688 73.394531 168.542969 C 72.832031 168.652344 72.261719 168.710938 71.6875 168.710938 C 71.113281 168.710938 70.546875 168.652344 69.984375 168.542969 C 69.417969 168.429688 68.871094 168.261719 68.34375 168.042969 C 67.8125 167.824219 67.308594 167.554688 66.832031 167.234375 C 66.351562 166.917969 65.910156 166.554688 65.503906 166.148438 C 65.101562 165.742188 64.738281 165.300781 64.417969 164.824219 C 64.097656 164.347656 63.828125 163.84375 63.609375 163.3125 C 63.390625 162.78125 63.226562 162.234375 63.113281 161.671875 C 63 161.109375 62.945312 160.539062 62.945312 159.964844 C 62.945312 159.390625 63 158.824219 63.113281 158.261719 C 63.226562 157.695312 63.390625 157.148438 63.609375 156.621094 C 63.828125 156.089844 64.097656 155.585938 64.417969 155.109375 C 64.738281 154.628906 65.101562 154.1875 65.503906 153.78125 C 65.910156 153.375 66.351562 153.015625 66.832031 152.695312 C 67.308594 152.375 67.8125 152.105469 68.34375 151.886719 C 68.871094 151.667969 69.417969 151.5 69.984375 151.390625 C 70.546875 151.277344 71.113281 151.222656 71.6875 151.222656 C 72.261719 151.222656 72.832031 151.277344 73.394531 151.390625 C 73.957031 151.5 74.503906 151.667969 75.035156 151.886719 C 75.566406 152.105469 76.070312 152.375 76.546875 152.695312 C 77.023438 153.015625 77.464844 153.375 77.871094 153.78125 C 78.277344 154.1875 78.640625 154.628906 78.957031 155.109375 C 79.277344 155.585938 79.546875 156.089844 79.765625 156.621094 C 79.984375 157.148438 80.152344 157.695312 80.265625 158.261719 C 80.375 158.824219 80.433594 159.390625 80.433594 159.964844 Z M 80.433594 159.964844 " fill-opacity="1" fill-rule="nonzero"/><path fill="#ffffff" d="M 94.484375 98.449219 L 156.3125 98.449219 L 156.3125 110.625 L 94.484375 110.625 Z M 94.484375 98.449219 " fill-opacity="1" fill-rule="nonzero"/><path fill="#ffffff" d="M 94.484375 126.238281 L 156.3125 126.238281 L 156.3125 138.417969 L 94.484375 138.417969 Z M 94.484375 126.238281 " fill-opacity="1" fill-rule="nonzero"/><path fill="#ffffff" d="M 94.484375 154.03125 L 156.3125 154.03125 L 156.3125 166.210938 L 94.484375 166.210938 Z M 94.484375 154.03125 " fill-opacity="1" fill-rule="nonzero"/></svg>