<svg xmlns="http://www.w3.org/2000/svg" xmlns:xlink="http://www.w3.org/1999/xlink" width="300" zoomAndPan="magnify" viewBox="0 0 224.87999 225" height="300" preserveAspectRatio="xMidYMid meet" version="1.0"><defs><clipPath id="9839494905"><path d="M 24 18.472656 L 90 18.472656 L 90 84 L 24 84 Z M 24 18.472656 " clip-rule="nonzero"/></clipPath><clipPath id="5379c755b6"><path d="M 135 18.472656 L 201 18.472656 L 201 84 L 135 84 Z M 135 18.472656 " clip-rule="nonzero"/></clipPath><clipPath id="0812eef4c0"><path d="M 136 86 L 224.761719 86 L 224.761719 173 L 136 173 Z M 136 86 " clip-rule="nonzero"/></clipPath><clipPath id="3caf9a8905"><path d="M 56 120 L 171 120 L 171 206.621094 L 56 206.621094 Z M 56 120 " clip-rule="nonzero"/></clipPath></defs><g clip-path="url(#9839494905)"><path fill="#44b1c5" d="M 56.691406 83.5 C 60.195312 83.507812 63.609375 82.957031 66.9375 81.851562 C 70.261719 80.746094 73.328125 79.144531 76.132812 77.042969 C 77.003906 72.878906 78.527344 68.96875 80.703125 65.316406 C 82.875 61.660156 85.585938 58.457031 88.828125 55.707031 C 89.050781 54.148438 89.164062 52.585938 89.164062 51.011719 C 89.164062 49.945312 89.113281 48.882812 89.007812 47.824219 C 88.90625 46.765625 88.75 45.714844 88.542969 44.671875 C 88.332031 43.628906 88.074219 42.597656 87.765625 41.578125 C 87.457031 40.558594 87.101562 39.558594 86.691406 38.578125 C 86.285156 37.59375 85.832031 36.632812 85.332031 35.695312 C 84.828125 34.753906 84.28125 33.84375 83.691406 32.960938 C 83.101562 32.074219 82.46875 31.21875 81.792969 30.398438 C 81.117188 29.574219 80.40625 28.789062 79.652344 28.035156 C 78.902344 27.28125 78.113281 26.570312 77.292969 25.894531 C 76.46875 25.21875 75.617188 24.585938 74.730469 23.996094 C 73.847656 23.402344 72.9375 22.855469 72 22.355469 C 71.0625 21.855469 70.101562 21.398438 69.117188 20.992188 C 68.136719 20.585938 67.132812 20.226562 66.117188 19.917969 C 65.097656 19.609375 64.070312 19.351562 63.027344 19.144531 C 61.980469 18.9375 60.929688 18.78125 59.871094 18.675781 C 58.816406 18.570312 57.753906 18.519531 56.691406 18.519531 C 55.625 18.519531 54.566406 18.570312 53.507812 18.675781 C 52.449219 18.78125 51.398438 18.9375 50.355469 19.144531 C 49.3125 19.351562 48.28125 19.609375 47.261719 19.917969 C 46.246094 20.226562 45.246094 20.585938 44.261719 20.992188 C 43.28125 21.398438 42.320312 21.855469 41.382812 22.355469 C 40.441406 22.855469 39.53125 23.402344 38.648438 23.996094 C 37.761719 24.585938 36.910156 25.21875 36.085938 25.894531 C 35.265625 26.570312 34.480469 27.28125 33.726562 28.035156 C 32.972656 28.789062 32.261719 29.574219 31.585938 30.398438 C 30.910156 31.21875 30.277344 32.074219 29.6875 32.960938 C 29.097656 33.84375 28.550781 34.753906 28.050781 35.695312 C 27.546875 36.632812 27.09375 37.59375 26.6875 38.578125 C 26.28125 39.558594 25.921875 40.558594 25.613281 41.578125 C 25.304688 42.597656 25.046875 43.628906 24.839844 44.671875 C 24.632812 45.714844 24.476562 46.765625 24.371094 47.824219 C 24.265625 48.882812 24.214844 49.945312 24.214844 51.011719 C 24.214844 52.074219 24.265625 53.136719 24.371094 54.195312 C 24.476562 55.253906 24.632812 56.304688 24.839844 57.347656 C 25.046875 58.394531 25.304688 59.421875 25.613281 60.441406 C 25.921875 61.460938 26.28125 62.460938 26.6875 63.445312 C 27.09375 64.425781 27.546875 65.386719 28.050781 66.328125 C 28.550781 67.265625 29.097656 68.175781 29.6875 69.0625 C 30.277344 69.945312 30.910156 70.800781 31.585938 71.621094 C 32.261719 72.445312 32.972656 73.234375 33.726562 73.984375 C 34.480469 74.738281 35.265625 75.453125 36.085938 76.125 C 36.910156 76.800781 37.761719 77.433594 38.648438 78.027344 C 39.53125 78.617188 40.441406 79.164062 41.382812 79.664062 C 42.320312 80.167969 43.28125 80.621094 44.261719 81.027344 C 45.246094 81.4375 46.246094 81.792969 47.261719 82.101562 C 48.28125 82.410156 49.3125 82.667969 50.355469 82.878906 C 51.398438 83.085938 52.449219 83.242188 53.507812 83.34375 C 54.566406 83.449219 55.625 83.5 56.691406 83.5 Z M 56.691406 83.5 " fill-opacity="1" fill-rule="nonzero"/></g><path fill="#44b1c5" d="M 75.378906 86.84375 C 73.792969 86.667969 72.203125 86.578125 70.605469 86.578125 L 43.167969 86.578125 C 41.753906 86.578125 40.34375 86.648438 38.9375 86.785156 C 37.53125 86.925781 36.132812 87.132812 34.746094 87.410156 C 33.359375 87.683594 31.988281 88.027344 30.636719 88.4375 C 29.285156 88.847656 27.953125 89.324219 26.648438 89.867188 C 25.34375 90.40625 24.066406 91.011719 22.820312 91.679688 C 21.570312 92.34375 20.359375 93.070312 19.183594 93.859375 C 18.007812 94.644531 16.875 95.484375 15.78125 96.382812 C 14.691406 97.28125 13.644531 98.230469 12.644531 99.230469 C 11.644531 100.230469 10.695312 101.277344 9.796875 102.371094 C 8.902344 103.464844 8.0625 104.597656 7.273438 105.773438 C 6.488281 106.949219 5.765625 108.160156 5.097656 109.410156 C 4.429688 110.65625 3.828125 111.933594 3.285156 113.242188 C 2.746094 114.546875 2.269531 115.878906 1.859375 117.230469 C 1.449219 118.585938 1.105469 119.957031 0.828125 121.34375 C 0.554688 122.730469 0.347656 124.128906 0.207031 125.535156 C 0.0703125 126.941406 0 128.355469 0 129.769531 L 0 162.339844 C 0 162.339844 25.296875 171.339844 51.117188 172.582031 L 51.117188 163.597656 C 51.121094 162.1875 51.183594 160.785156 51.304688 159.382812 C 51.429688 157.980469 51.613281 156.585938 51.855469 155.199219 C 52.097656 153.8125 52.398438 152.4375 52.761719 151.078125 C 53.121094 149.71875 53.539062 148.375 54.019531 147.050781 C 54.496094 145.726562 55.027344 144.425781 55.617188 143.148438 C 56.203125 141.871094 56.847656 140.617188 57.542969 139.394531 C 58.238281 138.171875 58.988281 136.980469 59.785156 135.824219 C 60.585938 134.664062 61.429688 133.542969 62.328125 132.457031 C 63.222656 131.371094 64.164062 130.324219 65.148438 129.320312 C 66.132812 128.316406 67.160156 127.355469 68.226562 126.441406 C 69.296875 125.523438 70.402344 124.65625 71.542969 123.835938 C 72.6875 123.011719 73.863281 122.242188 75.070312 121.523438 C 76.28125 120.804688 77.519531 120.136719 78.785156 119.523438 C 80.050781 118.910156 81.34375 118.355469 82.65625 117.851562 C 83.96875 117.351562 85.304688 116.90625 86.65625 116.519531 C 88.007812 116.132812 89.375 115.804688 90.757812 115.535156 C 88.5 113.855469 86.453125 111.953125 84.613281 109.824219 C 82.777344 107.691406 81.191406 105.386719 79.863281 102.910156 C 78.535156 100.429688 77.492188 97.832031 76.734375 95.125 C 75.976562 92.414062 75.527344 89.652344 75.378906 86.84375 Z M 75.378906 86.84375 " fill-opacity="1" fill-rule="nonzero"/><g clip-path="url(#5379c755b6)"><path fill="#fc2222" d="M 151.371094 79.066406 C 152.394531 79.664062 153.445312 80.203125 154.527344 80.683594 C 155.605469 81.167969 156.710938 81.589844 157.835938 81.953125 C 158.960938 82.3125 160.105469 82.613281 161.265625 82.847656 C 162.425781 83.085938 163.59375 83.257812 164.769531 83.367188 C 165.949219 83.476562 167.128906 83.519531 168.3125 83.5 C 169.496094 83.480469 170.675781 83.394531 171.847656 83.246094 C 173.023438 83.097656 174.183594 82.882812 175.335938 82.609375 C 176.484375 82.332031 177.617188 81.996094 178.730469 81.59375 C 179.84375 81.195312 180.933594 80.734375 181.996094 80.214844 C 183.058594 79.695312 184.089844 79.121094 185.09375 78.488281 C 186.09375 77.859375 187.054688 77.171875 187.980469 76.4375 C 188.90625 75.699219 189.789062 74.914062 190.628906 74.078125 C 191.46875 73.246094 192.261719 72.371094 193.007812 71.449219 C 193.75 70.527344 194.441406 69.570312 195.082031 68.574219 C 195.722656 67.578125 196.304688 66.550781 196.832031 65.492188 C 197.359375 64.429688 197.828125 63.347656 198.234375 62.234375 C 198.644531 61.125 198.992188 59.992188 199.277344 58.84375 C 199.5625 57.695312 199.78125 56.535156 199.941406 55.363281 C 200.101562 54.1875 200.195312 53.011719 200.222656 51.828125 C 200.253906 50.644531 200.21875 49.460938 200.117188 48.28125 C 200.019531 47.101562 199.855469 45.933594 199.628906 44.769531 C 199.402344 43.609375 199.109375 42.464844 198.757812 41.332031 C 198.40625 40.203125 197.992188 39.097656 197.519531 38.011719 C 197.046875 36.925781 196.515625 35.871094 195.925781 34.84375 C 195.335938 33.816406 194.695312 32.824219 193.996094 31.867188 C 193.300781 30.914062 192.554688 29.996094 191.757812 29.121094 C 190.957031 28.246094 190.117188 27.417969 189.230469 26.636719 C 188.339844 25.855469 187.414062 25.121094 186.445312 24.441406 C 185.476562 23.757812 184.476562 23.132812 183.441406 22.5625 C 182.402344 21.988281 181.339844 21.476562 180.246094 21.019531 C 179.15625 20.566406 178.042969 20.171875 176.90625 19.839844 C 175.769531 19.503906 174.621094 19.234375 173.457031 19.027344 C 172.292969 18.820312 171.117188 18.675781 169.9375 18.59375 C 168.757812 18.515625 167.578125 18.5 166.394531 18.550781 C 165.210938 18.601562 164.035156 18.714844 162.867188 18.894531 C 161.695312 19.070312 160.539062 19.3125 159.398438 19.617188 C 158.253906 19.921875 157.128906 20.289062 156.027344 20.714844 C 154.925781 21.144531 153.847656 21.628906 152.796875 22.175781 C 151.746094 22.722656 150.730469 23.320312 149.746094 23.980469 C 148.761719 24.636719 147.816406 25.34375 146.90625 26.105469 C 146 26.863281 145.136719 27.671875 144.320312 28.523438 C 143.5 29.378906 142.730469 30.277344 142.007812 31.214844 C 141.289062 32.152344 140.621094 33.128906 140.003906 34.140625 C 139.390625 35.152344 138.832031 36.195312 138.332031 37.265625 C 137.832031 38.339844 137.390625 39.4375 137.011719 40.554688 C 136.628906 41.675781 136.3125 42.816406 136.054688 43.972656 C 135.796875 45.125 135.605469 46.292969 135.476562 47.46875 C 135.347656 48.644531 135.285156 49.828125 135.285156 51.011719 C 135.285156 51.824219 135.316406 52.640625 135.378906 53.441406 C 137.507812 54.921875 139.46875 56.601562 141.261719 58.484375 C 143.050781 60.363281 144.632812 62.40625 146.007812 64.609375 C 147.382812 66.8125 148.519531 69.128906 149.425781 71.5625 C 150.328125 74 150.976562 76.5 151.371094 79.066406 Z M 151.371094 79.066406 " fill-opacity="1" fill-rule="nonzero"/></g><g clip-path="url(#0812eef4c0)"><path fill="#fc2222" d="M 181.667969 86.578125 L 154.238281 86.578125 C 153.414062 86.578125 152.589844 86.601562 151.777344 86.652344 C 151.644531 89.46875 151.207031 92.238281 150.460938 94.957031 C 149.714844 97.679688 148.683594 100.285156 147.359375 102.777344 C 146.039062 105.269531 144.460938 107.585938 142.625 109.726562 C 140.792969 111.871094 138.746094 113.785156 136.488281 115.476562 C 137.878906 115.738281 139.253906 116.058594 140.613281 116.4375 C 141.976562 116.820312 143.320312 117.257812 144.644531 117.753906 C 145.964844 118.253906 147.265625 118.804688 148.542969 119.414062 C 149.816406 120.023438 151.066406 120.6875 152.285156 121.40625 C 153.5 122.121094 154.6875 122.890625 155.839844 123.710938 C 156.992188 124.53125 158.105469 125.398438 159.183594 126.316406 C 160.257812 127.234375 161.292969 128.195312 162.289062 129.199219 C 163.28125 130.207031 164.230469 131.253906 165.132812 132.34375 C 166.035156 133.429688 166.890625 134.554688 167.695312 135.71875 C 168.503906 136.878906 169.257812 138.074219 169.957031 139.304688 C 170.660156 140.53125 171.308594 141.785156 171.902344 143.070312 C 172.496094 144.351562 173.035156 145.660156 173.515625 146.992188 C 173.996094 148.320312 174.417969 149.667969 174.78125 151.035156 C 175.148438 152.402344 175.453125 153.78125 175.695312 155.175781 C 175.941406 156.570312 176.125 157.96875 176.25 159.378906 C 176.371094 160.789062 176.433594 162.199219 176.4375 163.613281 L 176.4375 172.429688 C 201.289062 170.726562 224.863281 162.351562 224.863281 162.351562 L 224.863281 129.777344 C 224.863281 128.363281 224.792969 126.949219 224.65625 125.542969 C 224.515625 124.132812 224.308594 122.734375 224.035156 121.347656 C 223.757812 119.960938 223.414062 118.589844 223.003906 117.234375 C 222.59375 115.878906 222.117188 114.546875 221.574219 113.242188 C 221.035156 111.933594 220.429688 110.65625 219.761719 109.40625 C 219.097656 108.160156 218.371094 106.945312 217.585938 105.769531 C 216.796875 104.59375 215.957031 103.457031 215.058594 102.363281 C 214.160156 101.269531 213.210938 100.222656 212.210938 99.222656 C 211.210938 98.222656 210.164062 97.273438 209.070312 96.375 C 207.976562 95.476562 206.84375 94.636719 205.664062 93.851562 C 204.488281 93.0625 203.277344 92.339844 202.027344 91.671875 C 200.78125 91.003906 199.503906 90.402344 198.195312 89.859375 C 196.890625 89.320312 195.558594 88.84375 194.207031 88.433594 C 192.851562 88.023438 191.480469 87.679688 190.09375 87.40625 C 188.707031 87.128906 187.308594 86.921875 185.898438 86.785156 C 184.492188 86.648438 183.082031 86.578125 181.667969 86.578125 Z M 181.667969 86.578125 " fill-opacity="1" fill-rule="nonzero"/></g><path fill="#f7b322" d="M 100.613281 114.652344 C 104.226562 116.226562 108 117.109375 111.9375 117.296875 C 112.25 117.320312 112.570312 117.324219 112.890625 117.332031 L 113.570312 117.332031 C 114.578125 117.335938 115.589844 117.289062 116.59375 117.195312 C 117.601562 117.101562 118.601562 116.960938 119.597656 116.773438 C 120.589844 116.585938 121.574219 116.355469 122.542969 116.074219 C 123.515625 115.796875 124.472656 115.472656 125.414062 115.105469 C 126.355469 114.734375 127.277344 114.324219 128.183594 113.867188 C 129.085938 113.414062 129.964844 112.917969 130.820312 112.382812 C 131.679688 111.84375 132.507812 111.269531 133.3125 110.652344 C 134.113281 110.039062 134.886719 109.386719 135.628906 108.699219 C 136.371094 108.015625 137.082031 107.292969 137.753906 106.539062 C 138.429688 105.789062 139.066406 105.003906 139.671875 104.191406 C 140.273438 103.378906 140.835938 102.539062 141.359375 101.671875 C 141.878906 100.808594 142.363281 99.917969 142.804688 99.007812 C 143.242188 98.097656 143.640625 97.167969 143.992188 96.222656 C 144.347656 95.273438 144.65625 94.3125 144.917969 93.335938 C 145.183594 92.359375 145.398438 91.371094 145.570312 90.375 C 145.742188 89.378906 145.867188 88.375 145.945312 87.367188 C 146.015625 86.535156 146.046875 85.6875 146.046875 84.84375 C 146.050781 80.730469 145.300781 76.761719 143.800781 72.933594 C 142.328125 69.207031 140.242188 65.871094 137.535156 62.917969 C 136.4375 61.71875 135.253906 60.605469 133.992188 59.582031 C 132.726562 58.558594 131.390625 57.632812 129.984375 56.8125 C 128.582031 55.988281 127.125 55.277344 125.613281 54.671875 C 124.101562 54.070312 122.550781 53.582031 120.96875 53.210938 C 119.382812 52.839844 117.78125 52.589844 116.15625 52.460938 C 114.535156 52.332031 112.914062 52.324219 111.289062 52.4375 C 109.667969 52.550781 108.058594 52.789062 106.472656 53.144531 C 104.882812 53.5 103.332031 53.972656 101.816406 54.5625 C 100.296875 55.152344 98.832031 55.851562 97.421875 56.660156 C 96.011719 57.46875 94.667969 58.378906 93.390625 59.394531 C 92.117188 60.40625 90.925781 61.507812 89.816406 62.695312 C 88.707031 63.886719 87.691406 65.15625 86.773438 66.5 C 85.851562 67.84375 85.039062 69.246094 84.332031 70.714844 C 83.625 72.179688 83.03125 73.691406 82.546875 75.246094 C 82.066406 76.800781 81.707031 78.382812 81.460938 79.996094 C 81.21875 81.605469 81.097656 83.222656 81.097656 84.851562 C 81.09375 85.871094 81.144531 86.886719 81.246094 87.902344 C 81.382812 89.339844 81.613281 90.765625 81.9375 92.175781 C 82.261719 93.582031 82.679688 94.964844 83.1875 96.316406 C 83.699219 97.667969 84.296875 98.984375 84.980469 100.257812 C 85.664062 101.53125 86.433594 102.75 87.28125 103.921875 C 88.128906 105.09375 89.050781 106.203125 90.042969 107.25 C 91.039062 108.296875 92.101562 109.277344 93.226562 110.183594 C 94.355469 111.089844 95.535156 111.914062 96.773438 112.664062 C 98.007812 113.414062 99.289062 114.074219 100.613281 114.652344 Z M 100.613281 114.652344 " fill-opacity="1" fill-rule="nonzero"/><g clip-path="url(#3caf9a8905)"><path fill="#f7b322" d="M 127.65625 120.421875 L 99.5 120.421875 C 98.097656 120.4375 96.699219 120.523438 95.304688 120.679688 C 93.910156 120.832031 92.527344 121.054688 91.15625 121.34375 C 89.78125 121.632812 88.429688 121.988281 87.089844 122.410156 C 85.753906 122.832031 84.4375 123.316406 83.148438 123.863281 C 81.859375 124.414062 80.597656 125.023438 79.367188 125.699219 C 78.136719 126.371094 76.941406 127.101562 75.78125 127.890625 C 74.621094 128.679688 73.503906 129.523438 72.425781 130.417969 C 71.347656 131.316406 70.316406 132.265625 69.332031 133.265625 C 68.34375 134.261719 67.410156 135.304688 66.527344 136.394531 C 65.644531 137.484375 64.816406 138.617188 64.042969 139.785156 C 63.269531 140.957031 62.554688 142.160156 61.898438 143.402344 C 61.242188 144.640625 60.648438 145.910156 60.117188 147.207031 C 59.582031 148.507812 59.113281 149.828125 58.710938 151.171875 C 58.308594 152.515625 57.96875 153.875 57.699219 155.25 C 57.425781 156.628906 57.222656 158.015625 57.085938 159.410156 C 56.953125 160.808594 56.882812 162.207031 56.882812 163.609375 L 56.882812 196.183594 C 56.882812 196.183594 86.089844 206.574219 113.765625 206.574219 C 141.445312 206.574219 170.648438 196.191406 170.648438 196.191406 L 170.648438 163.617188 C 170.648438 162.207031 170.582031 160.800781 170.445312 159.394531 C 170.304688 157.992188 170.101562 156.597656 169.824219 155.214844 C 169.550781 153.828125 169.210938 152.460938 168.800781 151.109375 C 168.394531 149.761719 167.921875 148.433594 167.382812 147.128906 C 166.84375 145.824219 166.246094 144.550781 165.582031 143.304688 C 164.917969 142.058594 164.195312 140.847656 163.414062 139.675781 C 162.632812 138.5 161.796875 137.367188 160.902344 136.273438 C 160.011719 135.179688 159.066406 134.136719 158.070312 133.136719 C 157.078125 132.136719 156.035156 131.1875 154.945312 130.289062 C 153.859375 129.390625 152.730469 128.546875 151.558594 127.761719 C 150.386719 126.972656 149.179688 126.246094 147.941406 125.578125 C 146.699219 124.910156 145.425781 124.304688 144.125 123.757812 C 142.824219 123.214844 141.5 122.734375 140.152344 122.320312 C 138.800781 121.90625 137.4375 121.558594 136.054688 121.28125 C 134.671875 121 133.28125 120.789062 131.875 120.644531 C 130.472656 120.5 129.066406 120.425781 127.65625 120.421875 Z M 127.65625 120.421875 " fill-opacity="1" fill-rule="nonzero"/></g></svg>