<svg xmlns="http://www.w3.org/2000/svg" xmlns:xlink="http://www.w3.org/1999/xlink" width="300" zoomAndPan="magnify" viewBox="0 0 224.87999 225" height="300" preserveAspectRatio="xMidYMid meet" version="1.0"><defs><clipPath id="33c7110afa"><path d="M 0.144531 113 L 112 113 L 112 224.929688 L 0.144531 224.929688 Z M 0.144531 113 " clip-rule="nonzero"/></clipPath><clipPath id="dcf2e61fee"><path d="M 7.097656 125 L 112 125 L 112 224.929688 L 7.097656 224.929688 Z M 7.097656 125 " clip-rule="nonzero"/></clipPath><clipPath id="732afd8e9c"><path d="M 84.363281 0.0585938 L 223.996094 0.0585938 L 223.996094 140 L 84.363281 140 Z M 84.363281 0.0585938 " clip-rule="nonzero"/></clipPath></defs><path fill="#f79040" d="M 98.988281 107.410156 L 117.566406 126 L 106.242188 137.332031 L 87.664062 118.742188 L 98.988281 107.410156 " fill-opacity="1" fill-rule="nonzero"/><g clip-path="url(#33c7110afa)"><path fill="#f25a35" d="M 87.941406 113.082031 L 111.902344 137.0625 L 27.574219 221.457031 C 22.949219 226.089844 15.402344 226.089844 10.777344 221.457031 L 3.613281 214.289062 C -1.011719 209.660156 -1.011719 202.109375 3.613281 197.480469 L 87.941406 113.082031 " fill-opacity="1" fill-rule="nonzero"/></g><g clip-path="url(#dcf2e61fee)"><path fill="#e03d24" d="M 99.917969 125.066406 L 111.902344 137.0625 L 27.574219 221.453125 C 22.949219 226.085938 15.402344 226.085938 10.777344 221.453125 L 7.195312 217.871094 L 99.917969 125.066406 " fill-opacity="1" fill-rule="nonzero"/></g><g clip-path="url(#732afd8e9c)"><path fill="#f25a35" d="M 203.585938 20.488281 C 230.800781 47.726562 230.800781 91.894531 203.582031 119.132812 C 176.367188 146.371094 132.242188 146.371094 105.023438 119.132812 C 77.804688 91.894531 77.804688 47.726562 105.023438 20.488281 C 132.242188 -6.75 176.367188 -6.75 203.585938 20.488281 " fill-opacity="1" fill-rule="nonzero"/></g><path fill="#eaeae8" d="M 196.277344 27.800781 C 219.464844 51.003906 219.464844 88.621094 196.277344 111.820312 C 173.097656 135.023438 135.511719 135.023438 112.324219 111.820312 C 89.144531 88.621094 89.144531 51.003906 112.324219 27.800781 C 135.511719 4.597656 173.097656 4.597656 196.277344 27.800781 " fill-opacity="1" fill-rule="nonzero"/><path fill="#bdeaf3" d="M 189.375 34.707031 C 208.746094 54.09375 208.746094 85.527344 189.375 104.910156 C 170.007812 124.296875 138.601562 124.296875 119.230469 104.914062 C 99.859375 85.527344 99.859375 54.09375 119.230469 34.707031 C 138.601562 15.320312 170.007812 15.320312 189.375 34.707031 " fill-opacity="1" fill-rule="nonzero"/><path fill="#ffffff" d="M 189.90625 57.5625 C 195.492188 63.152344 195.492188 72.21875 189.90625 77.804688 C 184.324219 83.394531 175.269531 83.394531 169.679688 77.804688 C 164.097656 72.21875 164.097656 63.152344 169.679688 57.5625 C 175.269531 51.976562 184.324219 51.976562 189.90625 57.5625 " fill-opacity="1" fill-rule="nonzero"/></svg>