<svg xmlns="http://www.w3.org/2000/svg" xmlns:xlink="http://www.w3.org/1999/xlink" width="300" zoomAndPan="magnify" viewBox="0 0 224.87999 225" height="300" preserveAspectRatio="xMidYMid meet" version="1.0"><defs><clipPath id="51872e8fce"><path d="M 25.785156 22.546875 L 198.941406 22.546875 L 198.941406 196 L 25.785156 196 Z M 25.785156 22.546875 " clip-rule="nonzero"/></clipPath><clipPath id="dd1289971d"><path d="M 61 147 L 163 147 L 163 212.945312 L 61 212.945312 Z M 61 147 " clip-rule="nonzero"/></clipPath></defs><g clip-path="url(#51872e8fce)"><path fill="#78d1cc" d="M 198.949219 109.273438 C 198.949219 157.15625 160.195312 195.972656 112.390625 195.972656 C 64.582031 195.972656 25.832031 157.15625 25.832031 109.273438 C 25.832031 61.390625 64.582031 22.574219 112.390625 22.574219 C 160.195312 22.574219 198.949219 61.390625 198.949219 109.273438 " fill-opacity="1" fill-rule="nonzero"/></g><path fill="#ed451d" d="M 112.898438 183.65625 C 107.621094 183.65625 102.398438 182.667969 97.453125 180.84375 C 93.625 179.433594 89.964844 176.378906 85.785156 176.605469 C 78.113281 177.023438 68.1875 177.691406 65.433594 168.199219 C 62.699219 158.78125 72.984375 152.707031 73.769531 143.925781 C 74.503906 135.804688 61.972656 133.734375 65.277344 124.863281 C 66 122.925781 67.632812 121.1875 67.90625 119.066406 C 68.222656 116.714844 67.21875 114.6875 66.855469 112.441406 C 65.652344 104.949219 71.632812 94.523438 77.65625 90.394531 C 85.691406 84.882812 95.628906 83.597656 104.972656 81.804688 C 117.230469 79.441406 130.546875 75.898438 142.101562 80.976562 C 148.574219 83.824219 156.652344 86.574219 158.742188 93.882812 C 160.953125 101.628906 163.855469 109.503906 159.390625 117.074219 C 156.878906 121.339844 152.515625 123.15625 154.167969 128.511719 C 155.390625 132.480469 159.546875 134.820312 160.554688 138.941406 C 162.84375 148.265625 149.109375 150.53125 152.910156 159.304688 C 154.871094 163.824219 157.65625 166.453125 155.886719 171.804688 C 154.601562 175.6875 151.289062 177.605469 147.339844 177.859375 C 144.273438 178.050781 141.371094 176.980469 138.265625 177.511719 C 136.117188 177.882812 134.390625 178.878906 132.390625 179.695312 C 126.296875 182.1875 119.484375 183.65625 112.898438 183.65625 " fill-opacity="1" fill-rule="nonzero"/><g clip-path="url(#dd1289971d)"><path fill="#ffffff" d="M 162.890625 196.207031 C 158.609375 199.410156 154.011719 202.214844 149.15625 204.5625 C 148.417969 204.917969 147.679688 205.261719 146.929688 205.597656 C 136.386719 210.335938 124.699219 212.96875 112.390625 212.96875 C 100.082031 212.96875 88.398438 210.335938 77.855469 205.597656 C 77.101562 205.261719 76.355469 204.917969 75.625 204.5625 C 70.765625 202.210938 66.171875 199.410156 61.894531 196.207031 C 62.644531 179.449219 71.535156 164.808594 84.699219 156.164062 C 92.652344 150.9375 102.167969 147.898438 112.390625 147.898438 C 113.949219 147.898438 115.492188 147.972656 117.007812 148.109375 C 125.480469 148.875 133.339844 151.730469 140.078125 156.164062 C 146.140625 160.144531 151.296875 165.394531 155.164062 171.53125 C 159.707031 178.738281 162.476562 187.167969 162.890625 196.207031 " fill-opacity="1" fill-rule="nonzero"/></g><path fill="#fbd5c0" d="M 140.078125 156.164062 C 139.308594 162.007812 136.734375 167.292969 132.925781 171.421875 C 127.824219 176.957031 120.515625 180.429688 112.390625 180.429688 C 99.378906 180.429688 88.441406 171.515625 85.339844 159.449219 C 85.0625 158.378906 84.847656 157.277344 84.699219 156.164062 C 92.652344 150.9375 102.167969 147.898438 112.390625 147.898438 C 113.949219 147.898438 115.492188 147.964844 117.015625 148.109375 C 117.277344 148.132812 117.542969 148.160156 117.800781 148.1875 C 117.96875 148.203125 118.132812 148.21875 118.292969 148.242188 C 118.476562 148.257812 118.65625 148.285156 118.832031 148.308594 C 118.941406 148.320312 119.058594 148.335938 119.167969 148.351562 C 119.328125 148.367188 119.496094 148.394531 119.660156 148.417969 C 119.785156 148.433594 119.914062 148.457031 120.046875 148.472656 C 120.15625 148.492188 120.265625 148.507812 120.375 148.527344 C 120.5625 148.554688 120.746094 148.589844 120.933594 148.617188 C 121.738281 148.753906 122.535156 148.910156 123.324219 149.085938 L 123.855469 149.203125 C 123.953125 149.230469 124.058594 149.253906 124.15625 149.28125 C 124.34375 149.324219 124.539062 149.367188 124.71875 149.417969 C 124.753906 149.421875 124.78125 149.429688 124.800781 149.433594 C 125.039062 149.496094 125.277344 149.554688 125.507812 149.621094 C 125.761719 149.683594 126.007812 149.753906 126.25 149.828125 C 126.53125 149.902344 126.808594 149.984375 127.089844 150.070312 C 127.304688 150.136719 127.519531 150.203125 127.734375 150.273438 C 127.871094 150.316406 128.015625 150.363281 128.148438 150.40625 C 128.375 150.476562 128.597656 150.554688 128.820312 150.632812 C 129.09375 150.726562 129.367188 150.820312 129.636719 150.917969 C 129.65625 150.929688 129.675781 150.9375 129.691406 150.941406 C 129.972656 151.039062 130.246094 151.144531 130.523438 151.25 C 130.726562 151.332031 130.9375 151.410156 131.144531 151.5 C 131.691406 151.714844 132.226562 151.941406 132.753906 152.171875 L 133.449219 152.488281 C 133.660156 152.582031 133.867188 152.679688 134.078125 152.78125 C 134.269531 152.875 134.457031 152.960938 134.644531 153.054688 C 134.820312 153.136719 134.992188 153.226562 135.164062 153.316406 C 135.273438 153.371094 135.390625 153.425781 135.5 153.484375 C 135.957031 153.71875 136.402344 153.960938 136.84375 154.203125 C 137.003906 154.292969 137.167969 154.386719 137.324219 154.472656 C 137.429688 154.535156 137.527344 154.589844 137.628906 154.644531 L 138.003906 154.867188 L 138.382812 155.097656 L 138.628906 155.246094 C 138.867188 155.386719 139.097656 155.527344 139.332031 155.679688 C 139.582031 155.839844 139.832031 155.996094 140.078125 156.164062 " fill-opacity="1" fill-rule="nonzero"/><path fill="#fbd5c0" d="M 122.125 136.554688 L 122.125 155.734375 C 122.125 160.585938 118.160156 164.558594 113.320312 164.558594 L 111.457031 164.558594 C 106.621094 164.558594 102.664062 160.585938 102.664062 155.734375 L 102.664062 136.554688 C 102.664062 131.703125 106.621094 127.734375 111.457031 127.734375 L 113.320312 127.734375 C 118.160156 127.734375 122.125 131.703125 122.125 136.554688 " fill-opacity="1" fill-rule="nonzero"/><path fill="#f8a29e" d="M 122.125 136.554688 L 122.125 146.703125 C 119.230469 148.3125 116.160156 149.253906 113.046875 149.253906 C 109.371094 149.253906 105.863281 148.226562 102.664062 146.441406 L 102.664062 136.554688 C 102.664062 131.703125 106.621094 127.734375 111.457031 127.734375 L 113.320312 127.734375 C 118.160156 127.734375 122.125 131.703125 122.125 136.554688 " fill-opacity="1" fill-rule="nonzero"/><path fill="#fbd5c0" d="M 142.398438 124.664062 C 142.398438 124.664062 148.164062 122.699219 151.847656 116.261719 C 155.847656 109.273438 153.335938 104.917969 152.542969 103.972656 C 150.375 101.394531 147.03125 103.050781 146.480469 103.972656 C 145.925781 104.894531 137.945312 119.414062 142.398438 124.664062 " fill-opacity="1" fill-rule="nonzero"/><path fill="#f8a29e" d="M 148.050781 106.265625 C 148.050781 106.265625 151.710938 106.734375 150.425781 111.882812 C 149.136719 117.039062 145.757812 119.078125 141.160156 121.710938 C 136.570312 124.34375 143.457031 107.3125 148.050781 106.265625 " fill-opacity="1" fill-rule="nonzero"/><path fill="#fbd5c0" d="M 83.878906 124.664062 C 83.878906 124.664062 78.113281 122.699219 74.433594 116.261719 C 70.425781 109.273438 72.9375 104.917969 73.734375 103.972656 C 75.898438 101.394531 79.246094 103.050781 79.796875 103.972656 C 80.347656 104.894531 88.332031 119.414062 83.878906 124.664062 " fill-opacity="1" fill-rule="nonzero"/><path fill="#f8a29e" d="M 78.222656 106.265625 C 78.222656 106.265625 74.570312 106.734375 75.855469 111.882812 C 77.140625 117.039062 80.523438 119.078125 85.113281 121.710938 C 89.710938 124.34375 82.820312 107.3125 78.222656 106.265625 " fill-opacity="1" fill-rule="nonzero"/><path fill="#fbd5c0" d="M 148.050781 102.863281 C 148.050781 81.703125 132.457031 64.546875 113.21875 64.546875 C 93.980469 64.546875 78.378906 81.703125 78.378906 102.863281 C 78.378906 124.023438 93.980469 146.144531 113.21875 146.144531 C 131.292969 146.144531 148.050781 123.847656 148.050781 102.863281 " fill-opacity="1" fill-rule="nonzero"/><path fill="#ed451d" d="M 157.042969 95.664062 C 158.664062 91.828125 157.566406 87.164062 156.769531 83.398438 C 155.078125 75.40625 149.851562 67.816406 141.269531 66.078125 C 137.175781 65.25 133.089844 64.402344 129.433594 61.859375 C 126.089844 59.535156 122.921875 56.414062 119.164062 54.820312 C 111.8125 51.710938 102.210938 53.859375 100.277344 62.542969 C 100.191406 62.90625 100.117188 63.292969 100.050781 63.695312 L 99.941406 62.484375 C 99.324219 67.253906 99.339844 70.527344 102.210938 74.609375 C 105.164062 78.8125 109.078125 79.625 113.71875 80.132812 C 123.644531 81.21875 125.816406 87.617188 128.382812 95.882812 C 130.027344 101.167969 134.039062 107.042969 140.171875 105.835938 C 143.050781 105.265625 145.574219 103.59375 148.375 102.992188 C 151.464844 102.324219 152.535156 104.273438 154.722656 106.066406 C 154.707031 104.261719 153.796875 102.015625 154.28125 100.363281 C 154.761719 98.710938 156.371094 97.261719 157.042969 95.664062 " fill-opacity="1" fill-rule="nonzero"/><path fill="#ed451d" d="M 104.355469 69.089844 C 103.757812 67.382812 102.574219 65.523438 101.328125 64.144531 C 99.707031 62.355469 100.277344 62.542969 98.285156 61.929688 C 94.726562 60.59375 92.089844 59.8125 88.359375 61.996094 C 85.269531 63.8125 83.632812 66.808594 82.792969 70.148438 C 81.714844 74.449219 80.648438 76.539062 77.066406 79.597656 C 74.222656 82.019531 72.261719 84.957031 70.925781 88.429688 C 69.378906 92.457031 68.359375 97.253906 68.523438 101.675781 C 68.632812 104.625 69.378906 111.039062 71.5 112.964844 C 71.996094 108.246094 73.390625 105.628906 78.101562 104.375 C 82.125 103.3125 85.578125 102.765625 86.71875 98.09375 C 87.75 93.886719 88.007812 90.382812 91.949219 87.390625 C 95.199219 84.921875 99.734375 84.0625 102.480469 80.992188 C 105.328125 77.789062 105.730469 73.015625 104.355469 69.089844 " fill-opacity="1" fill-rule="nonzero"/></svg>