<svg xmlns="http://www.w3.org/2000/svg" xmlns:xlink="http://www.w3.org/1999/xlink" width="300" zoomAndPan="magnify" viewBox="0 0 224.87999 225" height="300" preserveAspectRatio="xMidYMid meet" version="1.0"><defs><clipPath id="062a63c012"><path d="M 29 22.546875 L 198.644531 22.546875 L 198.644531 192 L 29 192 Z M 29 22.546875 " clip-rule="nonzero"/></clipPath></defs><g clip-path="url(#062a63c012)"><path fill="#3998ff" d="M 198.527344 107.289062 C 198.527344 108.671875 198.492188 110.058594 198.425781 111.441406 C 198.359375 112.828125 198.257812 114.210938 198.121094 115.589844 C 197.984375 116.96875 197.816406 118.34375 197.613281 119.714844 C 197.410156 121.085938 197.171875 122.453125 196.902344 123.8125 C 196.632812 125.171875 196.328125 126.523438 195.992188 127.867188 C 195.65625 129.210938 195.285156 130.546875 194.882812 131.875 C 194.480469 133.199219 194.046875 134.515625 193.578125 135.820312 C 193.113281 137.125 192.613281 138.417969 192.085938 139.699219 C 191.554688 140.980469 190.992188 142.25 190.398438 143.5 C 189.808594 144.753906 189.183594 145.992188 188.53125 147.214844 C 187.878906 148.4375 187.195312 149.644531 186.484375 150.832031 C 185.769531 152.019531 185.027344 153.191406 184.257812 154.34375 C 183.488281 155.496094 182.691406 156.628906 181.867188 157.742188 C 181.039062 158.855469 180.1875 159.949219 179.308594 161.019531 C 178.429688 162.09375 177.523438 163.140625 176.59375 164.167969 C 175.664062 165.195312 174.707031 166.199219 173.726562 167.179688 C 172.746094 168.160156 171.742188 169.117188 170.714844 170.046875 C 169.6875 170.976562 168.640625 171.882812 167.570312 172.761719 C 166.496094 173.640625 165.40625 174.496094 164.292969 175.320312 C 163.179688 176.144531 162.046875 176.945312 160.894531 177.714844 C 159.742188 178.484375 158.570312 179.226562 157.378906 179.9375 C 156.191406 180.652344 154.984375 181.335938 153.765625 181.988281 C 152.542969 182.640625 151.304688 183.265625 150.050781 183.859375 C 148.796875 184.449219 147.53125 185.011719 146.25 185.542969 C 144.96875 186.074219 143.675781 186.570312 142.371094 187.039062 C 141.066406 187.507812 139.75 187.941406 138.425781 188.34375 C 137.097656 188.746094 135.761719 189.117188 134.417969 189.453125 C 133.074219 189.789062 131.722656 190.09375 130.363281 190.363281 C 129.003906 190.632812 127.636719 190.871094 126.265625 191.074219 C 124.894531 191.277344 123.519531 191.449219 122.140625 191.582031 C 120.761719 191.71875 119.378906 191.820312 117.996094 191.890625 C 116.609375 191.957031 115.222656 191.992188 113.839844 191.992188 C 112.453125 191.992188 111.066406 191.957031 109.683594 191.890625 C 108.296875 191.820312 106.914062 191.71875 105.535156 191.585938 C 104.15625 191.449219 102.78125 191.277344 101.410156 191.074219 C 100.039062 190.871094 98.675781 190.636719 97.316406 190.363281 C 95.953125 190.09375 94.601562 189.789062 93.257812 189.453125 C 91.914062 189.117188 90.578125 188.746094 89.25 188.34375 C 87.925781 187.941406 86.609375 187.507812 85.304688 187.042969 C 84 186.574219 82.707031 186.074219 81.425781 185.546875 C 80.144531 185.015625 78.878906 184.453125 77.625 183.859375 C 76.371094 183.269531 75.132812 182.644531 73.910156 181.992188 C 72.6875 181.339844 71.484375 180.65625 70.292969 179.941406 C 69.105469 179.230469 67.933594 178.488281 66.78125 177.71875 C 65.628906 176.949219 64.496094 176.152344 63.382812 175.324219 C 62.269531 174.5 61.179688 173.648438 60.105469 172.765625 C 59.035156 171.886719 57.984375 170.984375 56.957031 170.050781 C 55.929688 169.121094 54.929688 168.164062 53.949219 167.183594 C 52.96875 166.207031 52.011719 165.203125 51.082031 164.175781 C 50.148438 163.148438 49.246094 162.097656 48.367188 161.027344 C 47.488281 159.957031 46.632812 158.863281 45.808594 157.75 C 44.984375 156.636719 44.183594 155.503906 43.414062 154.351562 C 42.644531 153.199219 41.902344 152.027344 41.191406 150.839844 C 40.476562 149.648438 39.796875 148.445312 39.140625 147.222656 C 38.488281 146 37.863281 144.761719 37.273438 143.507812 C 36.679688 142.253906 36.117188 140.988281 35.589844 139.707031 C 35.058594 138.425781 34.558594 137.132812 34.09375 135.828125 C 33.625 134.523438 33.191406 133.207031 32.789062 131.882812 C 32.386719 130.554688 32.015625 129.21875 31.679688 127.875 C 31.34375 126.53125 31.039062 125.179688 30.769531 123.820312 C 30.5 122.457031 30.261719 121.09375 30.058594 119.722656 C 29.855469 118.351562 29.683594 116.976562 29.550781 115.597656 C 29.414062 114.21875 29.3125 112.835938 29.242188 111.449219 C 29.175781 110.066406 29.140625 108.679688 29.140625 107.292969 C 29.140625 105.910156 29.175781 104.523438 29.246094 103.140625 C 29.3125 101.753906 29.414062 100.371094 29.550781 98.992188 C 29.6875 97.613281 29.855469 96.238281 30.058594 94.867188 C 30.261719 93.496094 30.5 92.128906 30.769531 90.769531 C 31.039062 89.410156 31.34375 88.058594 31.679688 86.714844 C 32.019531 85.371094 32.386719 84.035156 32.789062 82.707031 C 33.191406 81.382812 33.628906 80.066406 34.09375 78.761719 C 34.5625 77.457031 35.0625 76.164062 35.589844 74.882812 C 36.121094 73.601562 36.683594 72.335938 37.277344 71.082031 C 37.867188 69.828125 38.492188 68.589844 39.144531 67.371094 C 39.800781 66.148438 40.480469 64.941406 41.195312 63.753906 C 41.90625 62.5625 42.648438 61.394531 43.417969 60.242188 C 44.191406 59.085938 44.988281 57.953125 45.8125 56.839844 C 46.640625 55.726562 47.492188 54.636719 48.371094 53.566406 C 49.25 52.492188 50.15625 51.445312 51.085938 50.417969 C 52.019531 49.390625 52.972656 48.386719 53.953125 47.40625 C 54.933594 46.425781 55.9375 45.472656 56.964844 44.539062 C 57.992188 43.609375 59.042969 42.703125 60.113281 41.824219 C 61.183594 40.945312 62.277344 40.09375 63.390625 39.269531 C 64.503906 38.441406 65.636719 37.644531 66.789062 36.875 C 67.941406 36.105469 69.113281 35.363281 70.300781 34.652344 C 71.492188 33.9375 72.695312 33.253906 73.917969 32.601562 C 75.140625 31.949219 76.378906 31.324219 77.632812 30.734375 C 78.886719 30.140625 80.152344 29.578125 81.433594 29.050781 C 82.714844 28.519531 84.007812 28.019531 85.3125 27.554688 C 86.617188 27.085938 87.933594 26.652344 89.261719 26.25 C 90.585938 25.847656 91.921875 25.476562 93.265625 25.140625 C 94.609375 24.804688 95.964844 24.5 97.324219 24.230469 C 98.683594 23.960938 100.046875 23.722656 101.417969 23.519531 C 102.789062 23.316406 104.164062 23.148438 105.546875 23.011719 C 106.925781 22.878906 108.304688 22.777344 109.691406 22.707031 C 111.074219 22.640625 112.460938 22.605469 113.847656 22.605469 C 115.234375 22.601562 116.621094 22.628906 118.007812 22.695312 C 119.390625 22.757812 120.777344 22.855469 122.15625 22.984375 C 123.539062 23.117188 124.914062 23.285156 126.289062 23.484375 C 127.660156 23.683594 129.027344 23.914062 130.386719 24.183594 C 131.75 24.449219 133.105469 24.75 134.449219 25.082031 C 135.796875 25.417969 137.132812 25.785156 138.460938 26.183594 C 139.792969 26.582031 141.109375 27.015625 142.414062 27.480469 C 143.722656 27.945312 145.019531 28.441406 146.300781 28.96875 C 147.582031 29.5 148.851562 30.058594 150.105469 30.648438 C 151.363281 31.242188 152.601562 31.863281 153.824219 32.515625 C 155.050781 33.167969 156.257812 33.847656 157.449219 34.5625 C 158.640625 35.273438 159.8125 36.011719 160.964844 36.785156 C 162.121094 37.554688 163.253906 38.351562 164.367188 39.175781 C 165.484375 40 166.578125 40.855469 167.648438 41.734375 C 168.722656 42.613281 169.773438 43.519531 170.800781 44.449219 C 171.828125 45.382812 172.835938 46.339844 173.816406 47.320312 C 174.796875 48.300781 175.753906 49.304688 176.683594 50.332031 C 177.613281 51.359375 178.519531 52.410156 179.398438 53.484375 C 180.28125 54.554688 181.132812 55.648438 181.957031 56.765625 C 182.785156 57.878906 183.582031 59.015625 184.351562 60.167969 C 185.121094 61.324219 185.859375 62.496094 186.574219 63.6875 C 187.285156 64.875 187.964844 66.082031 188.617188 67.308594 C 189.269531 68.53125 189.894531 69.773438 190.484375 71.027344 C 191.074219 72.28125 191.636719 73.550781 192.164062 74.832031 C 192.691406 76.117188 193.1875 77.410156 193.652344 78.71875 C 194.117188 80.023438 194.550781 81.34375 194.949219 82.671875 C 195.351562 84 195.714844 85.335938 196.050781 86.683594 C 196.382812 88.03125 196.683594 89.382812 196.949219 90.746094 C 197.21875 92.105469 197.453125 93.472656 197.652344 94.847656 C 197.851562 96.21875 198.015625 97.597656 198.148438 98.976562 C 198.277344 100.359375 198.375 101.742188 198.441406 103.128906 C 198.503906 104.511719 198.53125 105.898438 198.527344 107.289062 Z M 198.527344 107.289062 " fill-opacity="1" fill-rule="nonzero"/></g><path fill="#ffffff" d="M 179.171875 161.203125 C 178.171875 162.414062 177.140625 163.597656 176.074219 164.753906 C 175.007812 165.90625 173.910156 167.03125 172.78125 168.121094 C 171.65625 169.214844 170.496094 170.277344 169.308594 171.304688 C 168.121094 172.332031 166.90625 173.328125 165.664062 174.289062 C 164.421875 175.25 163.15625 176.175781 161.859375 177.066406 C 160.566406 177.957031 159.25 178.8125 157.90625 179.628906 C 156.566406 180.445312 155.203125 181.226562 153.816406 181.964844 C 152.433594 182.707031 151.027344 183.410156 149.605469 184.074219 C 148.179688 184.734375 146.738281 185.359375 145.28125 185.941406 C 143.820312 186.523438 142.347656 187.066406 140.859375 187.566406 C 139.371094 188.070312 137.871094 188.527344 136.355469 188.945312 C 134.839844 189.363281 133.316406 189.738281 131.78125 190.070312 C 130.246094 190.402344 128.703125 190.695312 127.152344 190.941406 C 125.601562 191.1875 124.042969 191.390625 122.480469 191.550781 C 120.917969 191.710938 119.351562 191.828125 117.78125 191.902344 C 116.214844 191.972656 114.644531 192.003906 113.074219 191.988281 C 111.503906 191.976562 109.933594 191.917969 108.367188 191.816406 C 106.796875 191.714844 105.234375 191.570312 103.675781 191.378906 C 102.117188 191.191406 100.5625 190.960938 99.015625 190.683594 C 97.46875 190.410156 95.933594 190.09375 94.402344 189.730469 C 92.875 189.371094 91.355469 188.96875 89.851562 188.523438 C 88.34375 188.078125 86.851562 187.59375 85.371094 187.066406 C 83.890625 186.535156 82.429688 185.96875 80.980469 185.359375 C 79.53125 184.75 78.101562 184.101562 76.691406 183.410156 C 75.28125 182.722656 73.886719 181.996094 72.515625 181.230469 C 71.144531 180.460938 69.796875 179.660156 68.472656 178.816406 C 67.144531 177.976562 65.84375 177.097656 64.566406 176.183594 C 63.285156 175.269531 62.035156 174.320312 60.8125 173.339844 C 59.585938 172.355469 58.390625 171.339844 57.222656 170.289062 C 56.050781 169.238281 54.914062 168.15625 53.804688 167.042969 C 52.699219 165.929688 51.621094 164.789062 50.578125 163.613281 C 49.53125 162.441406 48.523438 161.238281 47.542969 160.011719 C 56.566406 147.144531 70.550781 138.21875 99.957031 137.886719 C 133.898438 137.476562 158.863281 136.238281 169.171875 147.648438 C 172.925781 151.855469 176.261719 156.375 179.171875 161.203125 Z M 179.171875 161.203125 " fill-opacity="1" fill-rule="nonzero"/><path fill="#14213d" d="M 85.789062 85.929688 C 69.503906 80.039062 72.160156 58.5625 74.46875 58.101562 C 76.78125 57.636719 81.742188 61.449219 81.976562 61.5625 C 82.207031 61.679688 80.820312 51.980469 83.941406 47.476562 C 87.058594 42.972656 98.953125 52.09375 108.078125 52.210938 C 117.199219 52.324219 139.257812 52.902344 145.722656 58.675781 C 152.191406 64.453125 148.835938 76.808594 148.835938 76.808594 C 148.835938 76.808594 156.234375 78.769531 154.730469 89.164062 C 153.226562 99.558594 141.5625 108.484375 137.40625 115.976562 C 133.25 123.464844 108.554688 124.851562 104.722656 113.996094 " fill-opacity="1" fill-rule="nonzero"/><path fill="#ffb5a6" d="M 112.609375 150.402344 C 100.769531 150.402344 99.027344 140.519531 98.980469 138.851562 C 98.980469 138.660156 98.957031 138.324219 98.980469 137.871094 C 98.957031 136.941406 98.957031 135.507812 98.957031 133.839844 C 99.003906 129.328125 99.050781 123.097656 98.980469 120.425781 L 121.582031 112.332031 L 125.6875 110.855469 L 130.246094 109.230469 C 130.246094 109.230469 130.222656 110.113281 130.175781 111.570312 C 130.152344 112.40625 130.128906 113.433594 130.105469 114.601562 C 130.105469 114.738281 130.097656 114.875 130.078125 115.011719 C 130.054688 116.703125 130.03125 118.636719 129.984375 120.667969 C 129.914062 127.039062 129.890625 134.199219 130.222656 136.777344 C 130.839844 141.785156 124.445312 150.402344 112.609375 150.402344 Z M 112.609375 150.402344 " fill-opacity="1" fill-rule="nonzero"/><path fill="#e86b70" d="M 130.269531 114.648438 C 130.214844 114.773438 130.152344 114.894531 130.078125 115.007812 C 122.058594 131.5 110.003906 138.039062 98.980469 137.871094 C 98.953125 136.941406 98.953125 135.507812 98.953125 133.839844 C 99.003906 129.328125 99.050781 123.097656 98.980469 120.425781 L 121.582031 112.332031 L 130.101562 114.601562 Z M 130.269531 114.648438 " fill-opacity="1" fill-rule="nonzero"/><path fill="#ffb5a6" d="M 85.339844 71.265625 C 98.503906 87.046875 131.019531 84.199219 131.019531 84.199219 C 131.019531 84.199219 131.636719 102.675781 134.871094 102.523438 C 138.101562 102.371094 138.640625 92.128906 146.574219 93.828125 C 154.503906 95.523438 149.574219 110.839844 143.414062 111.6875 C 137.257812 112.53125 135.714844 107.296875 135.714844 107.296875 C 135.714844 107.296875 124.359375 129.820312 106.34375 129.820312 C 88.328125 129.820312 83.714844 112.546875 83.824219 103.140625 C 83.933594 93.730469 85.339844 71.265625 85.339844 71.265625 Z M 85.339844 71.265625 " fill-opacity="1" fill-rule="nonzero"/></svg>